<?xml version="1.0" encoding="UTF-8" standalone="no"?>
<!-- Created with Inkscape (http://www.inkscape.org/) -->

<svg
   width="1365.9891"
   height="784.04529"
   viewBox="0 0 361.41796 207.44531"
   version="1.1"
   id="svg1"
   xml:space="preserve"
   inkscape:export-filename="image2.svg"
   inkscape:export-xdpi="96"
   inkscape:export-ydpi="96"
   sodipodi:docname="deseret alphabet.svg"
   inkscape:version="1.3 (0e150ed6c4, 2023-07-21)"
   xmlns:inkscape="http://www.inkscape.org/namespaces/inkscape"
   xmlns:sodipodi="http://sodipodi.sourceforge.net/DTD/sodipodi-0.dtd"
   xmlns:xlink="http://www.w3.org/1999/xlink"
   xmlns="http://www.w3.org/2000/svg"
   xmlns:svg="http://www.w3.org/2000/svg"><sodipodi:namedview
     id="namedview1"
     pagecolor="#ffffff"
     bordercolor="#000000"
     borderopacity="0.25"
     inkscape:showpageshadow="2"
     inkscape:pageopacity="0.0"
     inkscape:pagecheckerboard="0"
     inkscape:deskcolor="#d1d1d1"
     inkscape:document-units="mm"
     inkscape:export-bgcolor="#dab08cff"
     inkscape:zoom="0.7040009"
     inkscape:cx="608.664"
     inkscape:cy="515.62434"
     inkscape:window-width="1920"
     inkscape:window-height="1112"
     inkscape:window-x="-8"
     inkscape:window-y="-8"
     inkscape:window-maximized="1"
     inkscape:current-layer="layer3" /><defs
     id="defs1"><pattern
       inkscape:collect="always"
       xlink:href="#Strips1_1"
       preserveAspectRatio="xMidYMid"
       id="pattern49"
       patternTransform="matrix(0,0.4,-0.4,0,0,0)"
       x="0"
       y="0" /><pattern
       inkscape:collect="always"
       xlink:href="#pattern47"
       preserveAspectRatio="xMidYMid"
       id="pattern48"
       patternTransform="matrix(0.56568542,0.56568542,-0.56568542,0.56568542,0,0)" /><pattern
       inkscape:collect="always"
       xlink:href="#Strips1_1"
       preserveAspectRatio="xMidYMid"
       id="pattern47"
       patternTransform="matrix(0.56568542,0.56568542,-0.56568542,0.56568542,0,0)"
       x="0"
       y="0" /><pattern
       inkscape:collect="always"
       patternUnits="userSpaceOnUse"
       width="2"
       height="10"
       patternTransform="translate(0,0) scale(2,2)"
       preserveAspectRatio="xMidYMid"
       id="Strips1_1"
       style="fill:#000000"
       inkscape:stockid="Stripes 01 (1:1)"
       inkscape:isstock="true"
       inkscape:label="Stripes 01 (1:1)">&#10;      <rect
   style="stroke:none"
   x="0"
   y="-0.5"
   width="1"
   height="11"
   id="rect134" />&#10;    </pattern><clipPath
       clipPathUnits="userSpaceOnUse"
       id="clipPath31"><rect
         style="fill:#ffffff;fill-opacity:1;stroke:none;stroke-width:0.750001;stroke-dasharray:none;stroke-opacity:1"
         id="rect32"
         width="28.954569"
         height="30.276144"
         x="8.289896"
         y="8.4100399" /></clipPath><clipPath
       clipPathUnits="userSpaceOnUse"
       id="clipPath66"><g
         id="g75"
         style="stroke-width:1.37865;stroke-dasharray:none"
         transform="matrix(0.54400974,0,0,0.54400974,62.085067,9.0769601)"><path
           id="path67"
           style="fill:none;fill-opacity:1;stroke:#000000;stroke-width:1.37865;stroke-dasharray:none;stroke-opacity:1"
           d="m 148.2917,57.448237 a 6.6803822,3.8772171 0 0 0 -0.022,9.3e-4 h -0.022 v 9.31e-4 a 6.6803822,3.8772171 0 0 0 -6.63648,3.875385 6.6803822,3.8772171 0 0 0 6.63648,3.875687 v 0.0024 h 64.89095 v -9.31e-4 a 6.6803822,3.8772171 0 0 0 6.67096,-3.877203 6.6803822,3.8772171 0 0 0 -6.68036,-3.877203 6.6803822,3.8772171 0 0 0 -0.022,9.31e-4 h -64.75408 a 6.6803822,3.8772171 0 0 0 -0.0616,-9.31e-4 z" /><path
           id="path68"
           style="fill:none;fill-opacity:1;stroke:#000000;stroke-width:1.37865;stroke-dasharray:none;stroke-opacity:1"
           d="m 149.47066,50.415363 a 6.4374391,3.4903943 0 0 0 -0.0211,8.38e-4 h -0.0213 v 8.38e-4 a 6.4374391,3.4903943 0 0 0 -6.39513,3.488745 6.4374391,3.4903943 0 0 0 6.39513,3.489016 v 0.0022 h 62.53108 v -8.38e-4 a 6.4374391,3.4903943 0 0 0 6.42836,-3.490382 6.4374391,3.4903943 0 0 0 -6.43741,-3.490381 6.4374391,3.4903943 0 0 0 -0.0213,8.38e-4 h -62.39916 a 6.4374391,3.4903943 0 0 0 -0.0594,-8.38e-4 z" /><path
           id="path69"
           style="fill:none;fill-opacity:1;stroke:#000000;stroke-width:1.37865;stroke-dasharray:none;stroke-opacity:1"
           d="m 151.32418,43.801689 a 6.0555171,3.2833153 0 0 0 -0.0199,7.88e-4 h -0.0201 v 7.88e-4 a 6.0555171,3.2833153 0 0 0 -6.01572,3.281764 6.0555171,3.2833153 0 0 0 6.01572,3.282019 v 0.002 h 58.82122 v -7.88e-4 a 6.0555171,3.2833153 0 0 0 6.04698,-3.283304 6.0555171,3.2833153 0 0 0 -6.0555,-3.283303 6.0555171,3.2833153 0 0 0 -0.0201,7.88e-4 h -58.69713 a 6.0555171,3.2833153 0 0 0 -0.0559,-7.88e-4 z" /><path
           id="path70"
           style="fill:none;fill-opacity:1;stroke:#000000;stroke-width:1.37865;stroke-dasharray:none;stroke-opacity:1"
           d="m 154.02023,37.85154 a 5.499925,2.982072 0 0 0 -0.018,7.15e-4 h -0.0182 v 7.17e-4 a 5.499925,2.982072 0 0 0 -5.46378,2.980662 5.499925,2.982072 0 0 0 5.46378,2.980895 v 0.0018 h 53.42439 v -7.15e-4 a 5.499925,2.982072 0 0 0 5.49217,-2.982062 5.499925,2.982072 0 0 0 -5.4999,-2.98206 5.499925,2.982072 0 0 0 -0.0182,7.15e-4 H 154.0708 a 5.499925,2.982072 0 0 0 -0.0508,-7.15e-4 z" /><path
           id="path71"
           style="fill:none;fill-opacity:1;stroke:#000000;stroke-width:1.37865;stroke-dasharray:none;stroke-opacity:1"
           d="m 157.3774,32.62057 a 4.8081418,2.6069856 0 0 0 -0.0158,6.25e-4 h -0.0159 v 6.28e-4 a 4.8081418,2.6069856 0 0 0 -4.77655,2.605752 4.8081418,2.6069856 0 0 0 4.77655,2.605956 v 0.0015 h 46.70464 v -6.26e-4 a 4.8081418,2.6069856 0 0 0 4.80135,-2.606976 4.8081418,2.6069856 0 0 0 -4.8081,-2.606975 4.8081418,2.6069856 0 0 0 -0.0159,6.26e-4 h -46.6061 a 4.8081418,2.6069856 0 0 0 -0.0443,-6.26e-4 z" /><path
           id="path72"
           style="fill:none;fill-opacity:1;stroke:#000000;stroke-width:1.37865;stroke-dasharray:none;stroke-opacity:1"
           d="m 161.01246,28.160556 a 4.0591084,2.200858 0 0 0 -0.0134,5.28e-4 h -0.0135 v 5.31e-4 a 4.0591084,2.200858 0 0 0 -4.03244,2.199816 4.0591084,2.200858 0 0 0 4.03244,2.199989 v 0.0013 h 39.4288 v -5.7e-4 a 4.0591084,2.200858 0 0 0 4.05336,-2.200851 4.0591084,2.200858 0 0 0 -4.05907,-2.200849 4.0591084,2.200858 0 0 0 -0.0135,5.29e-4 h -39.34559 a 4.0591084,2.200858 0 0 0 -0.0374,-5.29e-4 z" /><path
           id="path73"
           style="fill:none;fill-opacity:1;stroke:#000000;stroke-width:1.37865;stroke-dasharray:none;stroke-opacity:1"
           d="m 164.75704,24.479929 a 3.2874755,1.7824769 0 0 0 -0.0109,4.27e-4 h -0.0109 v 4.3e-4 a 3.2874755,1.7824769 0 0 0 -3.26588,1.781633 3.2874755,1.7824769 0 0 0 3.26588,1.781773 v 0.0011 h 31.93342 v -4.61e-4 a 3.2874755,1.7824769 0 0 0 3.28282,-1.782472 3.2874755,1.7824769 0 0 0 -3.28744,-1.782469 3.2874755,1.7824769 0 0 0 -0.0109,4.28e-4 h -31.86603 a 3.2874755,1.7824769 0 0 0 -0.0303,-4.28e-4 z" /><path
           id="path74"
           style="fill:none;fill-opacity:1;stroke:#000000;stroke-width:1.37865;stroke-dasharray:none;stroke-opacity:1"
           d="m 169.33418,21.932984 a 2.3443687,1.2711222 0 0 0 -0.008,3.04e-4 h -0.008 v 3.07e-4 a 2.3443687,1.2711222 0 0 0 -2.32897,1.27052 2.3443687,1.2711222 0 0 0 2.32897,1.270621 v 7.84e-4 h 22.7724 v -3.29e-4 a 2.3443687,1.2711222 0 0 0 2.34105,-1.271118 2.3443687,1.2711222 0 0 0 -2.34434,-1.271117 2.3443687,1.2711222 0 0 0 -0.008,3.05e-4 h -22.72434 a 2.3443687,1.2711222 0 0 0 -0.0216,-3.05e-4 z" /><path
           id="path75"
           style="fill:none;fill-opacity:1;stroke:#000000;stroke-width:1.37865;stroke-dasharray:none;stroke-opacity:1"
           d="m 173.52594,20.281057 a 1.4805887,0.80277867 0 0 0 -0.005,1.92e-4 h -0.005 v 1.94e-4 a 1.4805887,0.80277867 0 0 0 -1.47086,0.802399 1.4805887,0.80277867 0 0 0 1.47086,0.802461 v 4.95e-4 h 14.38195 v -2.07e-4 a 1.4805887,0.80277867 0 0 0 1.47849,-0.802776 1.4805887,0.80277867 0 0 0 -1.48057,-0.802775 1.4805887,0.80277867 0 0 0 -0.005,1.92e-4 h -14.35158 a 1.4805887,0.80277867 0 0 0 -0.0136,-1.92e-4 z" /></g></clipPath><clipPath
       clipPathUnits="userSpaceOnUse"
       id="clipPath77"><rect
         style="fill:#ffffff;fill-opacity:1;stroke:none;stroke-width:0.607198;stroke-dasharray:none;stroke-opacity:1"
         id="rect78"
         width="67.220375"
         height="13.469552"
         x="147.56538"
         y="-8.8437052"
         ry="0"
         transform="scale(1,-1)" /></clipPath></defs><g
     inkscape:groupmode="layer"
     id="layer3"
     inkscape:label="background"
     transform="translate(-0.00195313,0.00585938)"><path
       id="path76"
       style="display:inline;fill:#dab08c;fill-opacity:1;stroke:none;stroke-width:0.75;stroke-dasharray:none;stroke-opacity:1"
       d="m 0.00195313,0.5234375 c 0,68.9720055 0,137.9440125 0,206.9160125 120.47265687,0 240.94531687,0 361.41796687,0 0,-69.14843 0,-138.296872 0,-207.44530938 -120.47265,0 -240.94531,0 -361.41796687,0 0,0.1764323 0,0.35286459 0,0.52929688 z" /><text
       xml:space="preserve"
       style="font-style:normal;font-variant:normal;font-weight:normal;font-stretch:normal;font-size:12.7px;line-height:1.1;font-family:'Modern No. 20';-inkscape-font-specification:'Modern No. 20, ';text-align:end;text-anchor:end;fill:#000000;fill-opacity:1;stroke:none;stroke-width:0.878364;stroke-dasharray:none;stroke-opacity:1"
       x="182.10818"
       y="98.921555"
       id="text89"><tspan
         sodipodi:role="line"
         id="tspan89"
         style="font-size:12.7px;text-align:center;text-anchor:middle;fill:#000000;fill-opacity:1;stroke:none;stroke-width:0.878364"
         x="182.10817"
         y="98.921555">ππ³π‘‰ π‘π―πΏπ‘…π» πΏπ‘π­ π®π‘† πΈπ®πΌπ²π‘ π®π‘ π‘„ π’π³πΏ ππ΄πΏπ®π‘ π‘…π»π¬π‘‰ π®π‘ π΅π―πΏπ‘…πΊπ²π‘‰π‘€. </tspan><tspan
         sodipodi:role="line"
         style="font-size:12.7px;text-align:center;text-anchor:middle;fill:#000000;fill-opacity:1;stroke:none;stroke-width:0.878364"
         x="182.10818"
         y="113.12287"
         id="tspan90">ππ­ ππ‘‰ π‘π³πΏπ®π‘ π‘π«π‘‰ π© π‘…π‘‹π«π‘ πΊπ‘π­ πΊπ³πΏ, π‘‹ππ‘‰πΏπ» π°π‘† π‘‰π®π‘†π²π‘‰π‘‚πΌ.</tspan></text></g><g
     inkscape:label="Layer 1"
     inkscape:groupmode="layer"
     id="layer1"
     transform="translate(-0.00195313,0.00585938)"><g
       inkscape:groupmode="layer"
       id="layer2"
       inkscape:label="Layer 2"
       style="display:inline"><path
         id="path85"
         style="display:inline;fill:#dab08c;fill-opacity:1;stroke:#000000;stroke-width:0.75;stroke-dasharray:none;stroke-opacity:1"
         d="M 19.248047,3.5488281 C 11.50588,3.7108747 4.3919735,10.162937 3.6466109,17.901227 c -0.9032073,7.041962 3.342649,14.480765 10.0213581,17.028461 6.016609,2.479253 13.536965,1.026679 17.949357,-3.83725 4.326123,-4.519177 5.825538,-11.644166 3.302551,-17.42969 C 32.489744,7.625667 26.170589,3.3126399 19.622267,3.5475553 c -0.12474,4.243e-4 -0.24948,8.485e-4 -0.37422,0.00127 z"
         clip-path="url(#clipPath31)"
         transform="rotate(180,180.63045,103.70743)" /><path
         id="path86"
         style="display:inline;fill:#dab08c;fill-opacity:1;stroke:#000000;stroke-width:0.75;stroke-dasharray:none;stroke-opacity:1"
         d="M 19.248047,3.5488281 C 11.50588,3.7108747 4.3919735,10.162937 3.6466109,17.901227 c -0.9032073,7.041962 3.342649,14.480765 10.0213581,17.028461 6.016609,2.479253 13.536965,1.026679 17.949357,-3.83725 4.326123,-4.519177 5.825538,-11.644166 3.302551,-17.42969 C 32.489744,7.625667 26.170589,3.3126399 19.622267,3.5475553 c -0.12474,4.243e-4 -0.24948,8.485e-4 -0.37422,0.00127 z"
         clip-path="url(#clipPath31)"
         transform="matrix(1,0,0,-1,0,207.41486)" /><path
         id="path79"
         style="display:inline;fill:#dab08c;fill-opacity:1;stroke:#000000;stroke-width:0.75;stroke-dasharray:none;stroke-opacity:1"
         d="M 19.248047,3.5488281 C 11.50588,3.7108747 4.3919735,10.162937 3.6466109,17.901227 c -0.9032073,7.041962 3.342649,14.480765 10.0213581,17.028461 6.016609,2.479253 13.536965,1.026679 17.949357,-3.83725 4.326123,-4.519177 5.825538,-11.644166 3.302551,-17.42969 C 32.489744,7.625667 26.170589,3.3126399 19.622267,3.5475553 c -0.12474,4.243e-4 -0.24948,8.485e-4 -0.37422,0.00127 z"
         clip-path="url(#clipPath31)"
         transform="matrix(-1,0,0,1,361.26087,0)" /><path
         id="path31"
         style="fill:#dab08c;fill-opacity:1;stroke:#000000;stroke-width:0.75;stroke-dasharray:none;stroke-opacity:1"
         d="M 19.248047,3.5488281 C 11.50588,3.7108747 4.3919735,10.162937 3.6466109,17.901227 c -0.9032073,7.041962 3.342649,14.480765 10.0213581,17.028461 6.016609,2.479253 13.536965,1.026679 17.949357,-3.83725 4.326123,-4.519177 5.825538,-11.644166 3.302551,-17.42969 C 32.489744,7.625667 26.170589,3.3126399 19.622267,3.5475553 c -0.12474,4.243e-4 -0.24948,8.485e-4 -0.37422,0.00127 z"
         clip-path="url(#clipPath31)" /><path
         id="rect26"
         style="fill:none;fill-opacity:0.280488;stroke:#000000;stroke-width:1.5;stroke-dasharray:none;stroke-opacity:1"
         d="m 3.1777344,3.6992188 c 0,66.8548172 0,133.7096312 0,200.5644512 118.3554656,0 236.7109356,0 355.0664056,0 0,-67.03125 0,-134.062498 0,-201.0937481 -118.35547,0 -236.71094,0 -355.0664056,0 0,0.1764323 0,0.3528646 0,0.5292969 z" /><path
         id="path28"
         style="fill:none;fill-opacity:0.280488;stroke:#000000;stroke-width:0.75;stroke-dasharray:none;stroke-opacity:1"
         d="m 5.2949219,5.8164062 c 0,65.4433598 0,130.8867138 0,196.3300738 116.9440081,0 233.8880181,0 350.8320281,0 0,-65.61979 0,-131.239579 0,-196.8593706 -116.94401,0 -233.88802,0 -350.8320281,0 0,0.1764323 0,0.3528646 0,0.5292968 z" /><path
         id="path29"
         style="fill:none;fill-opacity:0.280488;stroke:#000000;stroke-width:0.75;stroke-dasharray:none;stroke-opacity:1"
         d="m 6.8828125,200.55859 c 115.8854175,0 231.7708375,0 347.6562475,0 0,-64.56119 0,-129.122392 0,-193.68359 -115.88541,0 -231.77083,0 -347.6562475,0 0,64.561198 0,129.1224 0,193.68359 z" /><path
         id="path30"
         style="fill:none;fill-opacity:0.280488;stroke:#000000;stroke-width:0.75;stroke-dasharray:none;stroke-opacity:1"
         d="m 8.4707031,8.9921875 c 0,63.3261715 0,126.6523425 0,189.9785125 114.8268269,0 229.6536469,0 344.4804669,0 0,-63.5026 0,-127.005205 0,-190.5078094 -114.82682,0 -229.65364,0 -344.4804669,0 0,0.1764323 0,0.3528646 0,0.5292969 z" /><g
         id="g76"
         transform="translate(20.317125,-10.817939)"><ellipse
           style="display:inline;fill:#dab08c;fill-opacity:1;stroke:#000000;stroke-width:1;stroke-dasharray:none;stroke-opacity:1"
           id="path77"
           cx="180.71042"
           cy="44.723938"
           rx="28.501753"
           ry="41.457096"
           transform="translate(-20.317125,10.817939)"
           inkscape:label="path77"
           clip-path="url(#clipPath77)" /><path
           style="display:inline;fill:url(#pattern49);fill-opacity:1;stroke:none;stroke-width:0.750001;stroke-dasharray:none;stroke-opacity:1"
           d="m 161.41818,18.885363 c 0,0 -14.09356,10.617144 -13.81169,27.717323 -16.25456,-0.469786 -20.01284,-0.751657 -20.01284,-0.751657 l 14.37542,-31.569561 z"
           id="path48"
           clip-path="url(#clipPath66)" /><g
           id="g40"
           style="stroke-width:1.37865;stroke-dasharray:none"
           transform="matrix(0.54400975,0,0,0.54400975,62.085066,9.0769601)"><path
             id="path32"
             style="fill:none;fill-opacity:1;stroke:#000000;stroke-width:1.37865;stroke-dasharray:none;stroke-opacity:1"
             d="m 148.2917,57.448237 a 6.6803822,3.8772171 0 0 0 -0.022,9.3e-4 h -0.022 v 9.31e-4 a 6.6803822,3.8772171 0 0 0 -6.63648,3.875385 6.6803822,3.8772171 0 0 0 6.63648,3.875687 v 0.0024 h 64.89095 v -9.31e-4 a 6.6803822,3.8772171 0 0 0 6.67096,-3.877203 6.6803822,3.8772171 0 0 0 -6.68036,-3.877203 6.6803822,3.8772171 0 0 0 -0.022,9.31e-4 h -64.75408 a 6.6803822,3.8772171 0 0 0 -0.0616,-9.31e-4 z" /><path
             id="path33"
             style="fill:none;fill-opacity:1;stroke:#000000;stroke-width:1.37865;stroke-dasharray:none;stroke-opacity:1"
             d="m 149.47066,50.415363 a 6.4374391,3.4903943 0 0 0 -0.0211,8.38e-4 h -0.0213 v 8.38e-4 a 6.4374391,3.4903943 0 0 0 -6.39513,3.488745 6.4374391,3.4903943 0 0 0 6.39513,3.489016 v 0.0022 h 62.53108 v -8.38e-4 a 6.4374391,3.4903943 0 0 0 6.42836,-3.490382 6.4374391,3.4903943 0 0 0 -6.43741,-3.490381 6.4374391,3.4903943 0 0 0 -0.0213,8.38e-4 h -62.39916 a 6.4374391,3.4903943 0 0 0 -0.0594,-8.38e-4 z" /><path
             id="path34"
             style="fill:none;fill-opacity:1;stroke:#000000;stroke-width:1.37865;stroke-dasharray:none;stroke-opacity:1"
             d="m 151.32418,43.801689 a 6.0555171,3.2833153 0 0 0 -0.0199,7.88e-4 h -0.0201 v 7.88e-4 a 6.0555171,3.2833153 0 0 0 -6.01572,3.281764 6.0555171,3.2833153 0 0 0 6.01572,3.282019 v 0.002 h 58.82122 v -7.88e-4 a 6.0555171,3.2833153 0 0 0 6.04698,-3.283304 6.0555171,3.2833153 0 0 0 -6.0555,-3.283303 6.0555171,3.2833153 0 0 0 -0.0201,7.88e-4 h -58.69713 a 6.0555171,3.2833153 0 0 0 -0.0559,-7.88e-4 z" /><path
             id="path35"
             style="fill:none;fill-opacity:1;stroke:#000000;stroke-width:1.37865;stroke-dasharray:none;stroke-opacity:1"
             d="m 154.02023,37.85154 a 5.499925,2.982072 0 0 0 -0.018,7.15e-4 h -0.0182 v 7.17e-4 a 5.499925,2.982072 0 0 0 -5.46378,2.980662 5.499925,2.982072 0 0 0 5.46378,2.980895 v 0.0018 h 53.42439 v -7.15e-4 a 5.499925,2.982072 0 0 0 5.49217,-2.982062 5.499925,2.982072 0 0 0 -5.4999,-2.98206 5.499925,2.982072 0 0 0 -0.0182,7.15e-4 H 154.0708 a 5.499925,2.982072 0 0 0 -0.0508,-7.15e-4 z" /><path
             id="path36"
             style="fill:none;fill-opacity:1;stroke:#000000;stroke-width:1.37865;stroke-dasharray:none;stroke-opacity:1"
             d="m 157.3774,32.62057 a 4.8081418,2.6069856 0 0 0 -0.0158,6.25e-4 h -0.0159 v 6.28e-4 a 4.8081418,2.6069856 0 0 0 -4.77655,2.605752 4.8081418,2.6069856 0 0 0 4.77655,2.605956 v 0.0015 h 46.70464 v -6.26e-4 a 4.8081418,2.6069856 0 0 0 4.80135,-2.606976 4.8081418,2.6069856 0 0 0 -4.8081,-2.606975 4.8081418,2.6069856 0 0 0 -0.0159,6.26e-4 h -46.6061 a 4.8081418,2.6069856 0 0 0 -0.0443,-6.26e-4 z" /><path
             id="path37"
             style="fill:none;fill-opacity:1;stroke:#000000;stroke-width:1.37865;stroke-dasharray:none;stroke-opacity:1"
             d="m 161.01246,28.160556 a 4.0591084,2.200858 0 0 0 -0.0134,5.28e-4 h -0.0135 v 5.31e-4 a 4.0591084,2.200858 0 0 0 -4.03244,2.199816 4.0591084,2.200858 0 0 0 4.03244,2.199989 v 0.0013 h 39.4288 v -5.7e-4 a 4.0591084,2.200858 0 0 0 4.05336,-2.200851 4.0591084,2.200858 0 0 0 -4.05907,-2.200849 4.0591084,2.200858 0 0 0 -0.0135,5.29e-4 h -39.34559 a 4.0591084,2.200858 0 0 0 -0.0374,-5.29e-4 z" /><path
             id="path38"
             style="fill:none;fill-opacity:1;stroke:#000000;stroke-width:1.37865;stroke-dasharray:none;stroke-opacity:1"
             d="m 164.75704,24.479929 a 3.2874755,1.7824769 0 0 0 -0.0109,4.27e-4 h -0.0109 v 4.3e-4 a 3.2874755,1.7824769 0 0 0 -3.26588,1.781633 3.2874755,1.7824769 0 0 0 3.26588,1.781773 v 0.0011 h 31.93342 v -4.61e-4 a 3.2874755,1.7824769 0 0 0 3.28282,-1.782472 3.2874755,1.7824769 0 0 0 -3.28744,-1.782469 3.2874755,1.7824769 0 0 0 -0.0109,4.28e-4 h -31.86603 a 3.2874755,1.7824769 0 0 0 -0.0303,-4.28e-4 z" /><path
             id="path39"
             style="fill:none;fill-opacity:1;stroke:#000000;stroke-width:1.37865;stroke-dasharray:none;stroke-opacity:1"
             d="m 169.33418,21.932984 a 2.3443687,1.2711222 0 0 0 -0.008,3.04e-4 h -0.008 v 3.07e-4 a 2.3443687,1.2711222 0 0 0 -2.32897,1.27052 2.3443687,1.2711222 0 0 0 2.32897,1.270621 v 7.84e-4 h 22.7724 v -3.29e-4 a 2.3443687,1.2711222 0 0 0 2.34105,-1.271118 2.3443687,1.2711222 0 0 0 -2.34434,-1.271117 2.3443687,1.2711222 0 0 0 -0.008,3.05e-4 h -22.72434 a 2.3443687,1.2711222 0 0 0 -0.0216,-3.05e-4 z" /><path
             id="path40"
             style="fill:none;fill-opacity:1;stroke:#000000;stroke-width:1.37865;stroke-dasharray:none;stroke-opacity:1"
             d="m 173.52594,20.281057 a 1.4805887,0.80277867 0 0 0 -0.005,1.92e-4 h -0.005 v 1.94e-4 a 1.4805887,0.80277867 0 0 0 -1.47086,0.802399 1.4805887,0.80277867 0 0 0 1.47086,0.802461 v 4.95e-4 h 14.38195 v -2.07e-4 a 1.4805887,0.80277867 0 0 0 1.47849,-0.802776 1.4805887,0.80277867 0 0 0 -1.48057,-0.802775 1.4805887,0.80277867 0 0 0 -0.005,1.92e-4 h -14.35158 a 1.4805887,0.80277867 0 0 0 -0.0136,-1.92e-4 z" /></g><g
           id="g43"
           style="fill:url(#pattern47);fill-opacity:1;stroke-width:1.37865;stroke-dasharray:none"
           transform="matrix(0.54400975,0,0,0.54400975,62.085066,9.0769601)"><rect
             style="fill:#dab08c;fill-opacity:1;stroke:#000000;stroke-width:1.37865;stroke-dasharray:none;stroke-opacity:1"
             id="rect40"
             width="88.362076"
             height="13.819032"
             x="136.52937"
             y="65.175331" /><g
             id="g42"
             transform="translate(0.50957286)"
             style="fill:url(#pattern47);fill-opacity:1;stroke-width:1.37865;stroke-dasharray:none"><rect
               style="fill:url(#pattern47);fill-opacity:1;stroke:#000000;stroke-width:1.37865;stroke-dasharray:none;stroke-opacity:1"
               id="rect41"
               width="10.05864"
               height="2.949811"
               x="139.74973"
               y="79.04586" /><rect
               style="fill:url(#pattern47);fill-opacity:1;stroke:#000000;stroke-width:1.37865;stroke-dasharray:none;stroke-opacity:1"
               id="rect42"
               width="10.05864"
               height="2.949811"
               x="210.59332"
               y="79.04586" /></g><path
             id="rect48"
             style="fill:url(#pattern48);fill-opacity:1;stroke:#000000;stroke-width:1.37865;stroke-dasharray:none;stroke-opacity:1"
             d="m 138.47461,68.09375 c 0,2.985026 0,5.970052 0,8.955078 28.1569,0 56.3138,0 84.4707,0 0,-3.309245 0,-6.618489 0,-9.927734 -28.1569,0 -56.3138,0 -84.4707,0 0,0.324219 0,0.648437 0,0.972656 z" /></g><path
           style="fill:#000000;fill-opacity:1;stroke:#000000;stroke-width:0.476919;stroke-dasharray:none;stroke-opacity:1"
           d="m 158.1304,44.484373 v -4.600478 c 0,0 0.17923,-1.478725 2.24049,-1.478725 2.06125,0 2.2853,1.523536 2.2853,1.523536 v 4.570603 z"
           id="path43"
           sodipodi:nodetypes="ccsccc" /></g></g><g
       id="g79"><path
         id="circle26"
         style="fill:#dab08c;fill-opacity:1;stroke:#000000;stroke-width:0.75;stroke-dasharray:none;stroke-opacity:1"
         d="M 19.255859,5.1367188 C 12.678116,5.3213848 6.5767038,10.454232 5.4026074,16.954037 4.1534201,22.983819 7.1158241,29.680559 12.561206,32.630948 17.361879,35.37115 23.724259,35.168341 28.240596,31.927295 33.101752,28.54103 35.681283,22.058873 34.111754,16.291838 32.761918,10.67702 27.832844,6.0736881 22.08012,5.3020485 21.145634,5.1597664 20.20058,5.109414 19.255859,5.1367188 Z" /><circle
         style="fill:none;fill-opacity:1;stroke:#000000;stroke-width:1.5;stroke-dasharray:none;stroke-opacity:1"
         id="path1"
         cx="19.83213"
         cy="19.843304"
         r="12.607017" /><text
         xml:space="preserve"
         style="font-style:normal;font-variant:normal;font-weight:normal;font-stretch:normal;font-size:24.8303px;line-height:1.1;font-family:'Californian FB';-inkscape-font-specification:'Californian FB';text-align:end;text-anchor:end;fill:#000000;fill-opacity:1;stroke:none;stroke-width:1.73305;stroke-dasharray:none"
         x="25.970221"
         y="22.375126"
         id="text1"><tspan
           sodipodi:role="line"
           id="tspan1"
           style="font-style:normal;font-variant:normal;font-weight:normal;font-stretch:normal;font-family:'Californian FB';-inkscape-font-specification:'Californian FB';fill:#000000;fill-opacity:1;stroke-width:1.73305"
           x="25.970221"
           y="22.375126">y</tspan></text></g><g
       id="g80"
       transform="matrix(-1,0,0,1,361.26087,0)"><path
         id="path80"
         style="fill:#dab08c;fill-opacity:1;stroke:#000000;stroke-width:0.75;stroke-dasharray:none;stroke-opacity:1"
         d="M 19.255859,5.1367188 C 12.678116,5.3213848 6.5767038,10.454232 5.4026074,16.954037 4.1534201,22.983819 7.1158241,29.680559 12.561206,32.630948 17.361879,35.37115 23.724259,35.168341 28.240596,31.927295 33.101752,28.54103 35.681283,22.058873 34.111754,16.291838 32.761918,10.67702 27.832844,6.0736881 22.08012,5.3020485 21.145634,5.1597664 20.20058,5.109414 19.255859,5.1367188 Z" /><circle
         style="fill:none;fill-opacity:1;stroke:#000000;stroke-width:1.5;stroke-dasharray:none;stroke-opacity:1"
         id="circle80"
         cx="19.83213"
         cy="19.843304"
         r="12.607017" /><text
         xml:space="preserve"
         style="font-style:normal;font-variant:normal;font-weight:normal;font-stretch:normal;font-size:24.8303px;line-height:1.1;font-family:'Californian FB';-inkscape-font-specification:'Californian FB';text-align:end;text-anchor:end;fill:#000000;fill-opacity:1;stroke:none;stroke-width:1.73305;stroke-dasharray:none"
         x="-14.355266"
         y="22.375126"
         id="text80"
         transform="scale(-1,1)"><tspan
           sodipodi:role="line"
           id="tspan80"
           style="font-style:normal;font-variant:normal;font-weight:normal;font-stretch:normal;font-family:'Californian FB';-inkscape-font-specification:'Californian FB';fill:#000000;fill-opacity:1;stroke-width:1.73305"
           x="-14.355266"
           y="22.375126">y</tspan></text></g><rect
       style="fill:#dab08c;fill-opacity:1;stroke:#000000;stroke-width:0.75;stroke-dasharray:none;stroke-opacity:1"
       id="rect79"
       width="108.02734"
       height="8.7867641"
       x="126.69674"
       y="195.76392" /><text
       xml:space="preserve"
       style="font-style:normal;font-variant:normal;font-weight:normal;font-stretch:normal;font-size:6.35125px;line-height:1.1;font-family:'Modern No. 20';-inkscape-font-specification:'Modern No. 20, ';text-align:end;text-anchor:end;fill:#000000;fill-opacity:1;stroke:none;stroke-width:1.12522;stroke-dasharray:none;stroke-opacity:1"
       x="254.10001"
       y="184.06709"
       id="text78"
       transform="scale(0.90990892,1.0990111)"><tspan
         sodipodi:role="line"
         id="tspan78"
         style="font-style:normal;font-variant:normal;font-weight:normal;font-stretch:normal;font-size:6.35125px;font-family:'Modern No. 20';-inkscape-font-specification:'Modern No. 20, ';fill:#000000;fill-opacity:1;stroke-width:1.12522"
         x="254.10001"
         y="184.06709">DESERET NEWS   FEBRUARY 16, 1859</tspan></text><g
       id="g87"
       transform="matrix(1,0,0,-1,0,207.41486)"><path
         id="path87"
         style="fill:#dab08c;fill-opacity:1;stroke:#000000;stroke-width:0.75;stroke-dasharray:none;stroke-opacity:1"
         d="M 19.255859,5.1367188 C 12.678116,5.3213848 6.5767038,10.454232 5.4026074,16.954037 4.1534201,22.983819 7.1158241,29.680559 12.561206,32.630948 17.361879,35.37115 23.724259,35.168341 28.240596,31.927295 33.101752,28.54103 35.681283,22.058873 34.111754,16.291838 32.761918,10.67702 27.832844,6.0736881 22.08012,5.3020485 21.145634,5.1597664 20.20058,5.109414 19.255859,5.1367188 Z" /><circle
         style="fill:none;fill-opacity:1;stroke:#000000;stroke-width:1.5;stroke-dasharray:none;stroke-opacity:1"
         id="circle87"
         cx="19.83213"
         cy="19.843304"
         r="12.607017" /><text
         xml:space="preserve"
         style="font-style:normal;font-variant:normal;font-weight:normal;font-stretch:normal;font-size:24.8303px;line-height:1.1;font-family:'Californian FB';-inkscape-font-specification:'Californian FB';text-align:end;text-anchor:end;fill:#000000;fill-opacity:1;stroke:none;stroke-width:1.73305;stroke-dasharray:none"
         x="25.970221"
         y="-17.622452"
         id="text87"
         transform="scale(1,-1)"><tspan
           sodipodi:role="line"
           id="tspan87"
           style="font-style:normal;font-variant:normal;font-weight:normal;font-stretch:normal;font-family:'Californian FB';-inkscape-font-specification:'Californian FB';fill:#000000;fill-opacity:1;stroke-width:1.73305"
           x="25.970221"
           y="-17.622452">y</tspan></text></g><g
       id="g88"
       transform="rotate(180,180.63044,103.70743)"><path
         id="path88"
         style="fill:#dab08c;fill-opacity:1;stroke:#000000;stroke-width:0.75;stroke-dasharray:none;stroke-opacity:1"
         d="M 19.255859,5.1367188 C 12.678116,5.3213848 6.5767038,10.454232 5.4026074,16.954037 4.1534201,22.983819 7.1158241,29.680559 12.561206,32.630948 17.361879,35.37115 23.724259,35.168341 28.240596,31.927295 33.101752,28.54103 35.681283,22.058873 34.111754,16.291838 32.761918,10.67702 27.832844,6.0736881 22.08012,5.3020485 21.145634,5.1597664 20.20058,5.109414 19.255859,5.1367188 Z" /><circle
         style="fill:none;fill-opacity:1;stroke:#000000;stroke-width:1.5;stroke-dasharray:none;stroke-opacity:1"
         id="circle88"
         cx="19.83213"
         cy="19.843304"
         r="12.607017" /><text
         xml:space="preserve"
         style="font-style:normal;font-variant:normal;font-weight:normal;font-stretch:normal;font-size:24.8303px;line-height:1.1;font-family:'Californian FB';-inkscape-font-specification:'Californian FB';text-align:end;text-anchor:end;fill:#000000;fill-opacity:1;stroke:none;stroke-width:1.73305;stroke-dasharray:none"
         x="-14.355266"
         y="-17.622452"
         id="text88"
         transform="scale(-1)"><tspan
           sodipodi:role="line"
           id="tspan88"
           style="font-style:normal;font-variant:normal;font-weight:normal;font-stretch:normal;font-family:'Californian FB';-inkscape-font-specification:'Californian FB';fill:#000000;fill-opacity:1;stroke-width:1.73305"
           x="-14.355266"
           y="-17.622452">y</tspan></text></g></g></svg>
